<?xml version="1.0" encoding="utf-8"?>
<!-- Generator: Adobe Illustrator 25.0.1, SVG Export Plug-In . SVG Version: 6.00 Build 0)  -->
<svg version="1.1" id="Layer_1" xmlns="http://www.w3.org/2000/svg" xmlns:xlink="http://www.w3.org/1999/xlink" x="0px" y="0px"
	 viewBox="0 0 330 330" style="enable-background:new 0 0 330 330;" xml:space="preserve">
<style type="text/css">
	.st0{fill:#243447;}
	.st1{fill:#FFFFFF;}
</style>
<rect class="st0" width="330" height="330"/>
<g id="XMLID_23_">
	<path id="XMLID_24_" class="st1" d="M123.5,171.9v27.6c0,3.8,3.1,6.9,6.9,6.9h27.6c1.8,0,3.6-0.7,4.9-2l76-76
		c2.7-2.7,2.7-7.1,0-9.8L211.4,91c-1.3-1.3-3.1-2-4.9-2s-3.6,0.7-4.9,2l-76,76C124.3,168.3,123.5,170.1,123.5,171.9z M137.4,174.8
		l69.1-69.1l17.9,17.9l-69.1,69.1h-17.9V174.8z"/>
	<path id="XMLID_27_" class="st1" d="M234.1,158.1c-3.8,0-6.9,3.1-6.9,6.9v62.2H102.8V102.8H165c3.8,0,6.9-3.1,6.9-6.9
		S168.8,89,165,89H95.9c-3.8,0-6.9,3.1-6.9,6.9v138.2c0,3.8,3.1,6.9,6.9,6.9h138.2c3.8,0,6.9-3.1,6.9-6.9V165
		C241,161.2,237.9,158.1,234.1,158.1z"/>
</g>
</svg>
